<svg width="112" height="100" viewBox="0 0 112 100" xmlns="http://www.w3.org/2000/svg">
  <path d="M10.3415 83.5C13.4241 83.5 15.4831 83.8464 16.5184 84.5399C17.5524 85.2327 18.0701 86.6086 18.0701 88.6669L18.0863 89.0353H13.9684V88.6195C13.9684 87.5582 13.7017 86.8797 13.1685 86.5826C12.6353 86.2855 11.4183 86.1376 9.51831 86.1376C6.97348 86.1376 5.44515 86.3705 4.93268 86.8382C4.42086 87.3052 4.16527 88.6909 4.16527 90.995C4.16527 94.099 4.39426 95.9368 4.85419 96.5063C5.31282 97.0765 6.79898 97.362 9.31202 97.362C11.3496 97.362 12.6723 97.2037 13.2801 96.8865C13.8866 96.5699 14.1902 95.8732 14.1902 94.7964L14.1584 94.0718H18.2763V94.6297C18.2763 96.8865 17.7269 98.346 16.6293 99.0071C15.5304 99.6681 13.1024 99.9989 9.34381 99.9989C5.07799 99.9989 2.45466 99.4761 1.47254 98.431C0.491062 97.3853 0 94.5901 0 90.0447C0 87.3688 0.664913 85.6089 1.99539 84.765C3.32586 83.9223 6.10747 83.5 10.3415 83.5ZM29.8371 83.5003C33.765 83.5003 36.293 83.9888 37.4236 84.967C38.553 85.9453 39.118 88.1327 39.118 91.5299C39.118 95.2437 38.5504 97.5835 37.4158 98.5494C36.2806 99.516 33.5328 99.9986 29.1722 99.9986C25.2444 99.9986 22.7047 99.5218 21.5546 98.5676C20.4032 97.6133 19.8284 95.5129 19.8284 92.2661C19.8284 88.4019 20.3928 85.9751 21.5228 84.9852C22.6522 83.9953 25.4241 83.5003 29.8371 83.5003ZM75.2896 83.5C78.3722 83.5 80.4312 83.8464 81.4665 84.5399C82.5005 85.2327 83.0182 86.6086 83.0182 88.6669L83.0344 89.0353H78.9165V88.6195C78.9165 87.5582 78.6499 86.8797 78.1166 86.5826C77.5834 86.2855 76.3665 86.1376 74.4664 86.1376C71.9216 86.1376 70.3933 86.3705 69.8808 86.8382C69.369 87.3052 69.1134 88.6909 69.1134 90.995C69.1134 94.099 69.3424 95.9368 69.8023 96.5063C70.2609 97.0765 71.7471 97.362 74.2601 97.362C76.2977 97.362 77.6204 97.2037 78.2282 96.8865C78.8347 96.5699 79.1383 95.8732 79.1383 94.7964L79.1065 94.0718H83.2245V94.6297C83.2245 96.8865 82.675 98.346 81.5774 99.0071C80.4785 99.6681 78.0505 99.9989 74.2919 99.9989C70.0261 99.9989 67.4028 99.4761 66.4206 98.431C65.4392 97.3853 64.9481 94.5901 64.9481 90.0447C64.9481 87.3688 65.613 85.6089 66.9435 84.765C68.274 83.9223 71.0556 83.5 75.2896 83.5ZM102.72 83.5003C106.648 83.5003 109.175 83.9888 110.306 84.967C111.435 85.9453 112 88.1327 112 91.5299C112 95.2437 111.432 97.5835 110.298 98.5494C109.163 99.516 106.415 99.9986 102.055 99.9986C98.127 99.9986 95.5874 99.5218 94.4372 98.5676C93.2858 97.6133 92.711 95.5129 92.711 92.2661C92.711 88.4019 93.2754 85.9751 94.4054 84.9852C95.5348 83.9953 98.3067 83.5003 102.72 83.5003ZM48.8413 83.6426L54.4636 91.8622C54.9598 92.5907 55.5352 93.4736 56.1897 94.5108L57.0136 95.8296L57.8368 97.1601H57.9795L57.9321 96.1151L57.8848 95.0694L57.853 92.9793V83.6426H61.9547V99.8561H55.002L48.8258 90.9592C48.5189 90.5162 48.0389 89.7403 47.3843 88.6311L46.6877 87.4673L46.0065 86.3035H45.8482L45.9118 87.3726L45.9592 88.4293L45.991 90.5557V99.8561H41.8893V83.6426H48.8413ZM89.9078 83.6425V99.856H85.8061V83.6425H89.9078ZM29.5206 86.1373C26.7649 86.1373 25.1549 86.4026 24.6904 86.9332C24.2253 87.4632 23.993 89.3003 23.993 92.4445C23.993 94.7727 24.2648 96.1739 24.8091 96.6494C25.3527 97.1242 26.955 97.3617 29.6153 97.3617C32.1595 97.3617 33.6859 97.0944 34.1925 96.5599C34.6991 96.0253 34.9528 94.4042 34.9528 91.6959C34.9528 88.9799 34.7127 87.3743 34.2321 86.8794C33.7514 86.3844 32.1815 86.1373 29.5206 86.1373ZM102.403 86.1373C99.6475 86.1373 98.0375 86.4026 97.573 86.9332C97.1079 87.4632 96.8757 89.3003 96.8757 92.4445C96.8757 94.7727 97.1475 96.1739 97.6917 96.6494C98.2353 97.1242 99.8376 97.3617 102.498 97.3617C105.042 97.3617 106.568 97.0944 107.075 96.5599C107.582 96.0253 107.835 94.4042 107.835 91.6959C107.835 88.9799 107.595 87.3743 107.115 86.8794C106.634 86.3844 105.064 86.1373 102.403 86.1373Z" fill="#646C80" />
  <circle cx="92" cy="13" r="6" fill="#ffa000" />
  <circle cx="56" cy="36" r="11" fill="#ffa000" />
  <path d="M53.9895 54.9455C57.1896 55.2517 60.4405 54.6691 63.3591 53.3248C66.2524 51.9919 68.7529 49.8913 70.6708 47.34C72.6447 44.7136 73.742 41.5159 74.1503 38.2489C74.6839 33.9737 73.6351 28.8923 77.2789 25.753C79.6581 23.7042 83.0901 23.0654 86.0404 24.1435C88.8565 25.1726 90.798 27.4292 91.4385 30.3491C92.7128 36.1301 91.6847 42.8886 89.6965 48.3733C88.1944 52.5169 86.0135 56.2128 83.3282 59.3853C82.9111 59.5631 82.4936 59.7314 82.0746 59.8953C73.6705 63.1685 64.9246 64.8245 55.4067 61.3463C45.278 57.645 38.0614 48.8398 37.2304 38.3638C37.1857 37.7988 37.1781 37.2316 37.1763 36.6639C37.3016 41.6433 39.4433 46.4492 43.0435 49.8901C46.0134 52.7289 49.9007 54.5532 53.9895 54.9455Z" fill="url(#paint1_linear)" />
  <path d="M54.0401 17.8376C48.575 18.4285 43.4517 21.1038 40.4158 25.7058C36.4012 31.7917 36.2801 39.3896 39.1127 45.988C41.6511 51.9007 46.4046 56.6106 52.0794 59.5244C57.7811 62.4519 64.3776 63.6268 70.7317 62.8021C74.9938 62.2488 79.3706 61.06 83.3282 59.3852C80.7515 62.5308 77.3382 65.1448 73.8314 67.1801C64.703 72.4772 53.5177 73.4708 43.6088 69.8498C35.3896 66.8462 28.9347 61.1441 24.8648 54.1086C24.4018 46.1158 25.3365 39.7112 27.1805 34.6246C33.499 17.1948 50.4899 15.2507 58.4495 17.956C57.1295 17.7574 55.3163 17.7 54.0401 17.8376Z" fill="url(#paint2_linear)" />
  <path d="M22.1736 23.6981C28.9469 5.01374 49.5241 -4.6206 68.1392 2.18198C71.4231 3.382 75.2424 5.08345 77.8104 7.52998C80.3532 9.94969 81.2519 13.7287 80.0509 17.0418C78.9063 20.1991 75.8404 22.3655 72.528 22.5828C70.1099 22.7414 67.7537 21.2682 65.6236 20.2788C63.3541 19.2253 60.8808 18.577 58.4495 17.956C54.9609 17.0654 51.4637 16.6733 48.0006 17.2392C41.6081 18.2854 35.9183 21.4229 31.8722 26.514C25.7553 34.2106 24.3587 44.5544 24.8648 54.1086C19.7125 45.1996 18.3878 34.1414 22.1736 23.6981Z" fill="url(#paint3_linear)" />
  <defs>
    <linearGradient id="paint1_linear" x1="94.2556" y1="20.6319" x2="61.2144" y2="55.4316" gradientUnits="userSpaceOnUse">
      <stop stop-color="#85c0ff" />
      <stop offset="1" stop-color="#586cda" />
    </linearGradient>
    <linearGradient id="paint2_linear" x1="75.4963" y1="62.7323" x2="31.0378" y2="33.9699" gradientUnits="userSpaceOnUse">
      <stop stop-color="#85c0ff" />
      <stop offset="1" stop-color="#586cda" />
    </linearGradient>
    <linearGradient id="paint3_linear" x1="38.0467" y1="18.1137" x2="71.5969" y2="15.6216" gradientUnits="userSpaceOnUse">
      <stop stop-color="#85c0ff" />
      <stop offset="1" stop-color="#586cda" />
    </linearGradient>
  </defs>
</svg>